<?xml version="1.0" standalone="no"?>
<!DOCTYPE svg PUBLIC "-//W3C//DTD SVG 20010904//EN"
 "http://www.w3.org/TR/2001/REC-SVG-20010904/DTD/svg10.dtd">
<svg version="1.0" xmlns="http://www.w3.org/2000/svg"
 width="300.000000pt" height="300.000000pt" viewBox="0 0 300.000000 300.000000"
 preserveAspectRatio="xMidYMid meet">

<g transform="translate(0.000000,300.000000) scale(0.100000,-0.100000)"
fill="#000000" stroke="none">
<path d="M530 2531 c-19 -10 -45 -33 -58 -51 l-22 -33 2 -943 3 -942 25 -27
c54 -58 0 -55 1008 -55 l929 0 34 23 c73 49 69 -14 69 1006 0 903 0 915 -21
957 -15 31 -32 48 -63 63 -42 21 -54 21 -957 21 -871 0 -916 -1 -949 -19z
m458 -282 c72 -35 110 -110 97 -195 -9 -59 -71 -127 -133 -143 -133 -36 -257
87 -222 219 30 113 153 169 258 119z m1004 -469 c80 -24 138 -73 173 -144 45
-93 54 -179 55 -533 l0 -323 -159 0 -160 0 -3 318 c-3 283 -5 321 -21 350 -29
53 -71 74 -144 70 -74 -5 -108 -25 -138 -84 -18 -36 -20 -62 -23 -346 l-3
-308 -160 0 -159 0 2 498 3 497 148 3 147 3 0 -68 0 -68 30 37 c40 49 79 76
143 98 71 26 186 26 269 0z m-927 -500 l0 -495 -157 -3 -158 -3 0 501 0 501
158 -3 157 -3 0 -495z"/>
</g>
</svg>
