<?xml version="1.0" standalone="no"?>
<!DOCTYPE svg PUBLIC "-//W3C//DTD SVG 20010904//EN"
 "http://www.w3.org/TR/2001/REC-SVG-20010904/DTD/svg10.dtd">
<svg version="1.0" xmlns="http://www.w3.org/2000/svg"
 width="1280.000000pt" height="720.000000pt" viewBox="0 0 1280.000000 720.000000"
 preserveAspectRatio="xMidYMid meet">

<g transform="translate(0.000000,720.000000) scale(0.100000,-0.100000)"
fill="#000000" stroke="none">
<path d="M890 5569 c-25 -4 -62 -14 -83 -22 -20 -9 -40 -16 -44 -16 -3 1 -9
-3 -12 -8 -3 -4 -24 -21 -46 -37 -71 -52 -225 -208 -308 -311 -274 -341 -390
-642 -308 -803 24 -48 59 -76 161 -130 77 -41 146 -60 325 -88 189 -29 305
-66 348 -112 53 -57 71 -110 71 -202 -1 -97 -27 -178 -91 -283 -43 -71 -160
-212 -229 -278 -67 -63 -164 -143 -164 -135 0 3 39 61 86 129 86 121 145 227
158 280 10 41 -7 62 -84 108 -64 38 -74 41 -117 34 -204 -29 -409 -220 -519
-480 -24 -58 -29 -83 -29 -154 l0 -85 55 -39 c52 -37 58 -39 112 -34 65 6 180
57 292 132 l70 46 -65 -68 c-190 -198 -243 -387 -132 -469 87 -65 194 -90 333
-79 258 20 504 94 599 180 87 79 113 153 171 496 54 322 82 450 141 649 27 90
49 176 49 190 0 21 -13 33 -69 68 -37 23 -75 42 -84 42 -8 0 -54 -49 -102
-110 -47 -60 -87 -110 -89 -110 -1 0 -3 35 -3 78 0 83 -4 115 -11 107 -2 -2
-18 3 -33 11 -28 14 -30 14 -40 -13 -19 -51 -59 -195 -60 -217 l0 -21 -9 21
c-4 11 -10 34 -12 50 -1 16 -6 34 -10 39 -4 6 -23 30 -41 55 -19 26 -67 68
-117 102 -47 31 -92 62 -100 70 -8 7 -17 12 -20 10 -8 -5 -144 42 -148 51 -2
4 -8 5 -12 2 -5 -3 -28 -1 -52 4 -24 6 -115 24 -203 41 -88 17 -170 37 -182
45 -46 30 -67 91 -66 190 2 329 333 778 675 914 107 43 112 43 104 -20 -4 -27
-36 -140 -71 -250 -36 -109 -65 -201 -65 -203 0 -4 68 -46 75 -46 2 0 24 35
49 78 112 191 186 391 172 465 -6 32 -16 42 -84 84 -42 26 -79 50 -82 53 -3 3
-25 3 -50 -1z m586 -1881 c-3 -79 -15 -210 -26 -293 -11 -82 -20 -151 -20
-152 0 -1 -15 12 -32 28 -72 65 -207 107 -307 94 -116 -15 -235 -55 -318 -108
-26 -17 7 21 97 111 138 139 199 217 231 301 l17 46 4 -34 c3 -31 11 -39 75
-79 41 -25 79 -42 87 -39 9 4 54 65 101 137 47 71 88 130 92 130 3 0 3 -64 -1
-142z m-886 -99 c0 -15 -91 -167 -143 -239 -22 -30 -60 -76 -85 -102 -52 -54
-53 -52 36 -107 l61 -37 -53 -33 c-81 -48 -192 -92 -252 -98 -51 -5 -53 -5
-59 20 -12 46 22 177 70 275 75 150 212 272 359 318 52 16 66 17 66 3z m698
-289 c49 -18 43 -48 -24 -109 -119 -109 -261 -173 -386 -175 -53 -1 -79 -5
-83 -14 -6 -15 111 -92 141 -92 40 0 296 98 314 121 3 3 15 11 28 18 12 6 47
32 78 57 l55 45 -7 -38 c-3 -21 -18 -74 -31 -118 -59 -187 -124 -262 -306
-352 -189 -94 -420 -140 -591 -119 -80 10 -106 35 -113 109 -10 117 57 262
186 399 89 95 164 154 264 208 113 61 199 81 332 76 61 -2 125 -9 143 -16z"/>
<path d="M8483 5440 c-13 -16 -25 -34 -28 -41 -2 -8 -10 -27 -16 -44 -7 -16
-14 -39 -16 -49 -2 -10 -12 -53 -23 -95 -10 -42 -40 -177 -65 -301 -65 -320
-115 -533 -128 -547 -7 -7 -21 -14 -32 -16 -11 -2 -27 -7 -35 -10 -26 -11
-164 -47 -195 -51 -16 -2 -37 -6 -45 -9 -8 -3 -45 -12 -82 -20 l-67 -15 11 27
c5 14 11 33 13 41 2 8 28 96 59 195 62 202 106 362 106 387 0 15 -56 58 -77
58 -10 0 -56 -121 -160 -420 -35 -102 -67 -192 -70 -200 -4 -8 -7 -17 -7 -20
-15 -68 -32 -103 -53 -111 -14 -5 -29 -7 -34 -3 -5 3 -9 1 -9 -3 0 -5 -21 -16
-48 -25 -82 -30 -127 -87 -125 -163 1 -16 4 -174 7 -349 4 -183 11 -324 16
-331 5 -7 8 -14 5 -17 -3 -2 1 -5 8 -5 7 0 41 -18 75 -41 33 -23 65 -42 71
-42 13 0 18 21 26 105 7 82 34 254 42 275 4 8 5 19 4 24 -1 5 3 32 9 60 6 28
13 64 15 79 10 70 59 279 69 292 6 7 20 15 31 17 11 2 22 6 25 9 11 12 410
152 416 146 2 -2 -17 -86 -42 -188 -24 -101 -47 -195 -50 -209 -2 -14 -7 -32
-10 -40 -3 -8 -8 -26 -10 -40 -3 -14 -26 -95 -51 -180 -25 -85 -48 -164 -51
-174 -3 -11 -13 -27 -22 -36 -10 -10 -20 -39 -24 -66 -4 -27 -9 -57 -12 -66
-3 -11 7 -25 30 -41 20 -13 34 -26 31 -29 -3 -2 1 -5 7 -5 7 0 20 -3 28 -7 11
-4 26 12 53 55 20 33 37 64 37 69 0 5 -11 17 -24 25 -24 16 -24 17 -10 68 8
29 16 59 18 67 21 85 30 110 38 110 5 0 7 4 4 9 -3 4 6 48 20 97 15 49 56 210
93 357 l67 269 71 27 c74 29 231 101 248 113 6 4 47 35 92 68 174 128 252 291
218 453 -16 79 -67 187 -136 292 -29 44 -52 84 -50 90 1 5 0 7 -4 3 -4 -4 -22
9 -41 27 -19 19 -34 32 -34 29 0 -2 -26 13 -57 34 -94 63 -95 63 -120 32z
m166 -209 c6 -10 7 -21 4 -25 -3 -3 -1 -6 6 -6 20 0 90 -161 103 -239 35 -203
-94 -391 -359 -525 -40 -20 -73 -33 -73 -28 0 14 87 322 120 427 56 173 161
415 181 415 5 0 13 -8 18 -19z"/>
<path d="M3615 4959 c-4 -5 -4 -40 0 -77 8 -89 -9 -172 -94 -455 -114 -380
-150 -529 -190 -808 -32 -213 -65 -626 -53 -645 4 -6 32 -27 62 -47 47 -32 57
-35 66 -22 6 9 14 87 17 187 6 179 19 278 63 483 32 145 109 428 159 585 38
117 134 370 140 370 2 0 25 -39 51 -87 26 -49 118 -207 204 -353 86 -146 176
-300 200 -343 l42 -78 -38 -112 c-33 -98 -38 -124 -38 -209 -1 -120 4 -128
140 -221 86 -58 108 -69 155 -73 70 -7 122 18 127 59 4 33 -77 207 -174 375
l-66 113 17 77 c10 42 32 120 51 172 38 109 77 199 69 159 -3 -15 -10 -72 -16
-127 -12 -114 -3 -184 35 -267 21 -47 33 -58 116 -109 50 -31 102 -61 114 -66
30 -11 66 7 91 47 11 18 24 32 29 33 5 0 32 -14 59 -31 63 -39 74 -34 107 54
14 36 28 68 31 71 3 4 11 -12 18 -34 12 -42 51 -76 76 -67 8 4 35 50 61 104
57 118 105 205 111 200 2 -3 -5 -38 -17 -78 -24 -87 -26 -169 -5 -210 9 -17
55 -55 113 -94 125 -84 153 -86 220 -20 24 25 47 45 49 45 2 0 31 -18 63 -40
32 -22 68 -40 80 -40 30 0 97 72 164 177 33 51 61 91 63 89 2 -2 -6 -24 -17
-50 -11 -26 -20 -51 -20 -56 0 -11 154 -110 172 -110 11 0 42 54 96 163 57
115 97 182 138 231 33 38 65 72 73 74 8 3 11 1 9 -4 -20 -33 -129 -420 -126
-446 2 -27 14 -40 68 -78 82 -57 126 -60 215 -15 86 43 84 58 -15 123 -44 28
-87 52 -95 52 -8 0 -20 -9 -27 -20 -18 -29 -29 -25 -22 8 17 80 54 173 125
316 44 88 79 169 79 180 0 15 -22 36 -69 69 -38 26 -75 47 -82 47 -6 0 -59
-46 -116 -102 l-104 -103 26 68 c14 37 25 74 25 82 0 8 -34 37 -76 65 -62 42
-78 49 -90 39 -8 -7 -57 -73 -108 -148 -96 -139 -207 -285 -271 -356 l-36 -40
6 30 c7 34 67 161 120 252 l36 62 -86 57 c-66 44 -90 56 -102 48 -28 -18 -90
-132 -118 -217 -28 -88 -85 -175 -164 -252 -40 -38 -41 -38 -41 -14 0 48 43
195 95 324 76 189 76 166 0 220 -50 36 -71 46 -89 41 -13 -3 -72 -56 -130
-118 -58 -61 -106 -109 -106 -106 0 28 177 378 282 559 93 157 118 204 118
216 0 10 -113 83 -128 83 -20 0 -91 -70 -138 -136 -56 -79 -144 -262 -184
-384 -29 -88 -110 -407 -125 -492 -5 -28 -18 -47 -51 -73 l-44 -36 0 80 c0 96
13 162 51 259 16 40 29 77 29 82 0 11 -159 110 -177 110 -6 0 -16 -7 -21 -16
-8 -14 -14 -15 -47 -4 -79 26 -156 9 -219 -49 l-28 -26 17 35 c61 121 199 298
312 399 115 103 262 208 322 230 78 29 165 74 168 86 2 6 -11 22 -29 35 -36
26 -34 26 -251 -20 -79 -17 -102 -18 -114 -9 -31 26 -143 2 -143 -31 0 -13
144 -103 174 -109 28 -6 26 -8 -67 -89 -155 -134 -317 -323 -420 -489 -29 -48
-96 -168 -147 -266 l-92 -178 -23 33 c-130 192 -337 576 -415 769 l-43 106 61
129 61 129 -32 28 c-17 15 -37 27 -43 27 -7 0 -29 -34 -50 -75 -22 -41 -42
-71 -45 -67 -4 4 -12 24 -19 45 -8 27 -26 48 -67 77 -60 43 -68 46 -78 29z
m41 -490 c-97 -287 -185 -611 -289 -1069 l-15 -65 -1 60 c-3 195 67 572 156
850 35 109 151 415 174 457 12 22 12 22 27 -8 13 -29 11 -40 -52 -225z m1821
34 c-19 -48 -53 -128 -76 -177 -49 -105 -192 -368 -198 -362 -6 6 34 157 63
238 31 87 85 196 127 258 46 69 112 148 115 140 2 -5 -12 -48 -31 -97z m-623
-450 c-12 -109 -133 -423 -163 -423 -15 0 -24 84 -19 173 5 85 34 168 78 225
23 29 88 82 102 82 4 0 5 -26 2 -57z m-431 -678 c25 -60 48 -127 52 -147 5
-34 3 -38 -20 -44 -66 -17 -135 27 -135 86 0 15 9 72 20 125 11 53 20 100 20
103 0 19 23 -26 63 -123z"/>
<path d="M2621 4803 c-5 -21 -14 -171 -20 -333 -9 -269 -15 -357 -23 -366 -2
-2 -37 18 -78 44 -60 37 -84 47 -131 50 -54 4 -59 2 -98 -33 -25 -23 -47 -56
-58 -84 l-16 -47 -80 53 c-44 29 -91 53 -104 53 -67 0 -209 -84 -287 -171
-100 -112 -132 -233 -87 -335 11 -24 17 -44 13 -44 -12 0 76 -60 132 -90 49
-25 69 -30 131 -30 40 0 108 6 151 14 44 8 100 16 127 19 40 4 47 2 47 -14 0
-20 106 -89 138 -89 13 0 32 15 48 38 16 20 31 41 35 46 4 5 24 -2 44 -14 33
-21 40 -22 78 -10 54 16 97 38 97 50 0 5 -27 25 -59 45 l-60 37 5 91 c6 96 30
173 109 352 35 79 85 228 99 295 35 176 42 370 15 422 -11 20 -120 88 -142 88
-10 0 -20 -14 -26 -37z m65 -452 c-18 -97 -57 -243 -63 -238 -6 6 24 174 50
282 26 109 36 76 13 -44z m-180 -310 c10 -16 28 -35 41 -42 13 -7 23 -18 23
-25 0 -28 -123 -253 -181 -332 -46 -62 -64 -81 -73 -72 -7 7 -11 59 -10 148 0
166 19 226 93 303 55 57 82 62 107 20z m-567 -88 c-24 -27 -72 -77 -108 -112
l-64 -64 38 -22 c35 -22 40 -22 78 -9 89 32 193 111 267 206 l37 46 6 -151 c3
-84 12 -186 20 -227 8 -41 14 -76 13 -77 -1 -1 -29 16 -63 37 -77 49 -152 69
-170 45 -6 -10 -9 -23 -7 -30 12 -30 -187 -53 -220 -26 -44 37 -44 159 -1 247
27 54 129 159 146 148 5 -3 9 -1 9 5 0 7 34 25 59 30 2 1 -16 -20 -40 -46z"/>
<path d="M6002 4346 c-48 -52 -132 -165 -132 -177 0 -15 151 -111 166 -105 8
3 14 14 14 26 0 11 16 67 35 124 19 58 35 111 35 118 0 11 -60 58 -74 58 -2 0
-22 -20 -44 -44z"/>
<path d="M10853 4189 c-93 -96 -98 -107 -62 -140 16 -15 29 -25 29 -23 0 3 24
-11 54 -30 40 -26 57 -32 64 -23 16 21 62 177 62 211 0 24 -6 36 -25 46 -13 7
-23 16 -20 19 2 4 -5 7 -16 8 -11 1 -45 -25 -86 -68z"/>
<path d="M9160 4138 c-89 -46 -125 -92 -98 -125 24 -30 187 -131 235 -147 27
-8 102 -24 167 -36 66 -11 123 -23 128 -26 14 -9 9 -43 -12 -84 -66 -129 -339
-339 -624 -481 -65 -32 -123 -56 -127 -53 -10 6 -65 -21 -74 -36 -4 -6 -2 -16
3 -23 8 -9 -54 -13 -276 -15 -423 -4 -878 -21 -1128 -42 -67 -5 -177 -12 -245
-15 -68 -3 -297 -21 -509 -41 -212 -19 -407 -37 -435 -39 -27 -3 -88 -9 -135
-14 -47 -4 -92 -9 -100 -9 -8 -1 -346 -35 -750 -76 -404 -41 -766 -78 -805
-81 -38 -4 -81 -8 -95 -10 -14 -2 -50 -6 -80 -9 -30 -3 -66 -8 -80 -11 -14 -2
-54 -7 -90 -10 -36 -3 -81 -7 -100 -10 -135 -15 -823 -99 -945 -114 -82 -11
-157 -19 -165 -20 -8 0 -130 -16 -270 -36 -140 -19 -259 -34 -265 -33 -5 0
-17 -2 -25 -5 -8 -3 -62 -13 -120 -21 -58 -8 -215 -31 -349 -50 -135 -20 -247
-34 -249 -31 -3 2 -12 0 -21 -5 -9 -4 -46 -11 -81 -14 -36 -4 -119 -15 -185
-26 -66 -11 -127 -19 -135 -18 -8 0 -22 -2 -30 -5 -8 -3 -28 -8 -45 -10 -16
-3 -142 -24 -278 -46 -137 -22 -251 -40 -255 -39 -4 1 -14 -1 -22 -5 -17 -6
-69 -17 -240 -50 -115 -23 -140 -31 -140 -46 0 -5 25 -26 55 -46 l55 -38 162
21 c90 11 291 38 448 60 157 22 292 40 300 40 8 1 69 11 135 22 66 11 128 18
137 16 10 -2 20 -1 23 4 2 4 33 10 67 14 35 4 77 11 93 16 46 14 496 81 505
75 5 -3 12 0 15 5 4 6 19 10 33 9 15 -1 34 1 42 4 24 9 272 55 340 62 84 10
475 74 515 85 34 9 692 104 865 125 30 4 71 11 90 15 31 8 730 97 770 98 8 1
44 5 80 11 36 5 92 12 125 15 33 3 218 24 410 46 193 23 360 39 373 37 12 -2
22 -1 22 2 0 6 148 24 310 37 25 2 108 11 185 19 312 34 678 62 711 55 21 -5
32 -4 28 2 -4 6 18 9 60 6 36 -1 67 0 69 3 2 7 481 36 647 40 409 9 1284 8
1540 -1 168 -6 348 -13 400 -15 52 -2 146 -4 209 -4 62 1 111 -3 108 -8 -3 -4
52 -8 121 -8 189 0 539 -14 607 -25 33 -5 114 -12 180 -15 66 -3 127 -8 136
-11 9 -2 69 -8 134 -13 65 -5 120 -13 124 -17 3 -5 43 -9 89 -9 46 -1 86 -5
90 -10 4 -6 42 -10 85 -11 43 0 81 -4 85 -10 4 -5 32 -9 62 -10 53 0 100 -6
340 -39 63 -9 144 -20 179 -25 84 -11 97 -25 34 -38 -157 -34 -327 -63 -340
-58 -8 3 -12 2 -9 -3 3 -5 -7 -11 -22 -14 -107 -19 -719 -148 -867 -183 -62
-14 -180 -16 -995 -19 -524 -1 -997 -7 -1090 -13 -91 -6 -203 -12 -250 -13
-47 0 -221 -10 -387 -20 -166 -11 -355 -21 -420 -24 -520 -23 -2165 -199
-2848 -305 -66 -10 -289 -43 -495 -74 -206 -31 -413 -63 -460 -71 -47 -8 -233
-37 -415 -65 -181 -27 -368 -57 -415 -65 -47 -8 -247 -39 -445 -70 -198 -30
-378 -59 -401 -65 -22 -5 -186 -32 -365 -60 -178 -28 -339 -55 -359 -60 -19
-5 -136 -25 -260 -45 -124 -19 -281 -47 -350 -60 -69 -13 -213 -40 -320 -59
-174 -32 -551 -105 -622 -122 -52 -12 -53 -30 -4 -63 24 -17 56 -31 70 -31 33
0 559 76 661 95 325 62 568 109 735 143 540 111 1015 204 1365 268 762 140
1278 230 1810 315 209 33 418 67 465 75 566 93 2123 259 2620 279 74 3 196 10
270 16 603 45 2166 65 2465 33 l60 -7 -143 -38 c-187 -49 -231 -65 -259 -91
-44 -41 -32 -60 85 -144 106 -77 144 -93 213 -94 53 0 88 47 57 78 -13 13 -17
12 102 48 151 45 190 55 199 49 5 -3 11 -1 13 3 3 8 203 61 288 77 19 4 81 18
137 31 89 21 111 23 165 14 35 -5 113 -17 173 -25 140 -20 229 -34 280 -45 22
-5 57 -12 78 -15 20 -3 37 -9 37 -13 0 -15 -631 -205 -1175 -354 -151 -41
-270 -72 -730 -186 -359 -90 -592 -177 -632 -238 -27 -42 -13 -65 87 -142 99
-76 145 -104 214 -129 115 -42 170 -49 550 -73 93 -6 194 -16 224 -21 52 -10
58 -9 74 11 10 12 18 26 18 31 0 5 -56 51 -125 103 -149 112 -148 111 -455
123 -229 9 -229 9 5 88 149 50 280 87 670 193 61 17 153 42 205 57 89 25 146
41 408 116 345 98 717 216 819 259 87 37 135 75 131 103 -4 27 -120 122 -173
140 -72 26 -323 67 -408 67 -43 0 -50 15 -9 23 15 2 142 25 282 50 331 60 581
112 650 135 l55 19 2 69 3 69 -69 49 c-38 26 -81 54 -95 61 -56 29 -233 62
-466 85 -58 6 -106 14 -107 18 -2 4 -35 5 -74 4 -39 -2 -92 2 -118 8 -25 7
-77 12 -116 11 -38 -1 -97 3 -130 9 -33 6 -118 13 -190 16 -71 3 -169 9 -216
14 -47 6 -258 17 -470 25 -211 8 -431 17 -489 21 -58 4 -116 7 -130 7 -14 0
-230 4 -480 9 -250 5 -508 8 -572 8 -65 -1 -118 2 -118 5 0 11 349 225 368
225 6 0 12 4 14 8 2 5 42 32 90 60 235 142 338 235 338 307 0 40 -14 58 -75
100 -30 21 -55 42 -55 47 0 4 -3 7 -7 6 -13 -3 -83 35 -83 44 0 5 -3 7 -7 5
-5 -3 -19 0 -33 6 -14 5 -32 11 -40 12 -27 3 -125 27 -135 33 -5 3 -23 7 -39
9 -17 2 -34 7 -39 12 -11 11 59 66 117 91 52 24 63 37 46 53 -10 9 -11 9 -6
-1 4 -7 -10 -1 -31 13 -33 23 -46 26 -104 23 -49 -2 -81 -10 -119 -30z"/>
<path d="M8635 4111 c-9 -16 -147 -104 -161 -104 -8 0 -14 -4 -14 -9 0 -5 -4
-6 -10 -3 -5 3 -10 2 -10 -2 0 -5 -41 -26 -90 -47 -104 -44 -123 -65 -85 -94
13 -11 21 -23 17 -27 -4 -5 -2 -5 4 -2 7 4 21 -1 33 -11 l21 -17 -30 -47 c-87
-139 -148 -292 -142 -358 4 -37 10 -44 75 -90 95 -67 122 -67 211 4 113 91
228 322 209 419 -4 18 -21 40 -47 59 -22 16 -41 34 -41 39 0 6 21 22 46 37
l47 26 53 -41 c30 -23 93 -66 141 -96 l87 -55 -34 -57 c-83 -137 -210 -270
-295 -308 -71 -31 -73 -32 -84 -49 -7 -11 -5 -20 7 -32 8 -9 18 -16 22 -16 3
0 23 -12 44 -26 50 -32 96 -30 95 4 -1 19 28 44 149 130 186 132 297 235 331
305 l25 52 -28 25 c-56 49 -81 68 -81 64 0 -3 -26 13 -57 34 -36 24 -66 37
-78 35 -11 -3 -37 -7 -57 -10 -44 -6 -46 -3 -56 88 l-7 64 -90 62 c-91 63
-109 71 -120 54z m-129 -408 c-8 -57 -43 -135 -85 -188 -39 -49 -114 -110
-119 -97 -7 21 31 151 64 220 45 93 64 112 110 112 l37 0 -7 -47z"/>
<path d="M9982 3994 c-39 -40 -67 -91 -154 -279 -58 -126 -112 -247 -118 -268
-18 -59 -7 -80 65 -126 36 -23 65 -45 65 -49 0 -5 8 -10 18 -11 69 -8 89 6
184 133 35 47 57 70 53 55 -32 -138 -38 -196 -20 -221 8 -13 15 -19 15 -15 0
3 28 -12 63 -34 59 -39 76 -42 126 -28 31 9 191 176 268 278 2 2 5 2 8 -1 4
-3 -1 -36 -10 -73 -8 -37 -13 -71 -9 -76 3 -5 32 -27 64 -49 72 -49 108 -51
172 -11 66 42 113 87 244 232 97 107 240 236 251 225 5 -4 -35 -191 -57 -271
-18 -66 -23 -118 -10 -110 10 6 61 -31 53 -39 -5 -4 -3 -7 2 -6 22 5 36 -1 29
-12 -4 -6 -3 -8 3 -5 11 7 66 -27 57 -35 -3 -3 9 -5 26 -4 57 4 104 67 217
287 59 114 128 224 155 247 12 9 18 1 33 -51 10 -34 17 -64 16 -66 -2 -2 1 -7
6 -10 5 -3 26 -36 46 -73 21 -37 53 -88 72 -113 19 -25 35 -47 35 -50 0 -2 23
-26 51 -52 61 -58 151 -121 239 -171 36 -20 67 -40 68 -44 2 -4 8 -6 13 -2 5
3 9 0 9 -7 0 -7 3 -10 6 -6 4 3 28 -5 55 -18 58 -30 65 -31 79 -5 9 16 5 23
-25 43 -19 13 -32 27 -27 32 4 5 1 5 -5 1 -8 -4 -23 3 -38 18 -14 14 -25 22
-25 18 0 -4 -7 2 -16 13 -8 11 -18 19 -22 18 -12 -4 -72 20 -72 29 0 4 -7 5
-15 2 -8 -4 -15 -1 -15 5 0 6 -6 8 -12 6 -36 -14 -140 94 -185 192 -34 75 -53
178 -52 290 1 126 -7 150 -62 191 -24 18 -54 41 -66 52 -13 10 -23 16 -23 14
0 -3 -10 2 -22 10 -12 9 -30 16 -39 16 -16 0 -176 -159 -220 -220 l-22 -29
-41 31 c-23 17 -47 38 -53 47 -7 8 -13 11 -13 7 0 -4 -20 7 -44 24 -52 35 -82
37 -137 10 -60 -31 -112 -83 -176 -174 -105 -150 -208 -253 -332 -331 l-44
-27 8 47 c11 75 52 192 106 297 27 54 49 104 49 110 0 10 -96 79 -157 112 -13
7 -47 -47 -36 -57 3 -3 -4 -37 -16 -76 -39 -127 -173 -297 -320 -404 -35 -26
-67 -47 -71 -47 -14 0 19 141 71 312 49 157 51 169 36 186 -9 10 -22 33 -28
51 -8 22 -30 45 -75 75 -35 23 -61 46 -56 50 4 4 3 7 -3 6 -20 -4 -36 0 -31 8
6 9 4 10 -67 18 -48 6 -49 5 -95 -42z m159 -201 c-49 -95 -220 -306 -236 -291
-22 21 126 259 184 296 14 9 34 26 45 36 28 28 31 6 7 -41z"/>
</g>
</svg>
