<?xml version="1.0" standalone="no"?>
<!DOCTYPE svg PUBLIC "-//W3C//DTD SVG 20010904//EN"
 "http://www.w3.org/TR/2001/REC-SVG-20010904/DTD/svg10.dtd">
<svg version="1.0" xmlns="http://www.w3.org/2000/svg"
 width="1280.000000pt" height="720.000000pt" viewBox="0 0 1280.000000 720.000000"
 preserveAspectRatio="xMidYMid meet">

<g transform="translate(0.000000,720.000000) scale(0.100000,-0.100000)"
fill="#000000" stroke="none">
<path d="M829 5551 c-224 -88 -605 -538 -719 -850 -83 -227 -56 -341 101 -437
86 -52 143 -69 347 -104 216 -37 313 -67 360 -113 104 -100 108 -265 11 -447
-54 -100 -105 -166 -216 -281 -89 -91 -213 -198 -213 -183 0 3 31 50 69 103
130 182 181 275 181 329 0 37 -6 44 -74 87 -55 35 -63 37 -121 33 -95 -6 -213
-68 -309 -161 -129 -126 -233 -316 -244 -444 -7 -91 0 -106 65 -148 52 -33 63
-36 108 -31 62 7 186 66 303 144 l89 59 -77 -76 c-87 -85 -170 -206 -195 -282
-38 -113 -4 -186 113 -245 56 -28 60 -29 217 -29 209 1 379 35 540 109 90 41
134 81 173 153 44 84 94 305 76 335 -4 6 -20 -26 -35 -71 -35 -105 -62 -159
-103 -211 -113 -143 -445 -272 -701 -273 -187 0 -221 26 -213 159 8 115 78
249 199 378 32 35 56 65 54 68 -3 3 2 11 12 19 11 9 14 10 9 2 -4 -7 -3 -13 2
-13 11 0 30 21 31 35 1 5 7 10 14 11 27 2 29 4 19 17 -9 10 0 22 36 53 220
183 357 362 383 502 8 43 8 42 4 -18 -3 -36 -1 -70 3 -76 14 -22 142 -94 156
-88 8 3 54 66 103 141 l88 136 3 -84 c2 -46 -2 -145 -7 -219 -6 -74 -7 -138
-3 -142 4 -4 21 45 36 110 15 64 51 197 78 295 28 97 48 183 45 190 -5 14
-136 97 -153 97 -5 0 -50 -52 -99 -115 l-90 -116 -5 91 c-5 89 -6 91 -37 110
l-32 19 -15 -42 c-23 -63 -56 -188 -57 -217 0 -23 -1 -23 -8 -5 -5 11 -14 42
-20 69 -16 69 -63 128 -145 185 -142 97 -217 124 -490 175 -242 46 -255 51
-286 106 -22 40 -25 56 -24 145 0 85 5 114 32 192 117 344 394 642 691 744 30
11 56 19 59 19 17 0 -15 -142 -67 -298 -34 -100 -61 -191 -61 -201 0 -18 38
-51 59 -51 23 0 154 248 196 373 30 91 33 176 8 200 -36 32 -159 97 -183 97
-14 -1 -46 -9 -71 -19z m-254 -2001 c-54 -107 -200 -312 -231 -324 -32 -12
-13 -42 53 -80 l66 -39 -24 -18 c-76 -59 -294 -141 -333 -126 -38 15 -8 176
57 307 47 95 156 216 239 264 55 32 144 65 176 66 l22 0 -25 -50z"/>
<path d="M8471 5419 c-29 -47 -73 -217 -141 -546 -33 -160 -73 -342 -88 -404
l-27 -112 -53 -18 c-62 -21 -403 -101 -408 -96 -2 2 26 98 62 213 92 296 128
433 115 447 -5 7 -23 20 -40 30 l-31 18 -14 -33 c-27 -64 -148 -403 -199 -558
l-52 -157 -65 -22 c-84 -29 -128 -57 -150 -94 -17 -28 -18 -53 -13 -386 3
-196 9 -362 12 -369 4 -7 41 -35 82 -63 67 -45 75 -48 87 -32 6 9 12 37 12 61
0 61 34 273 80 502 56 275 51 262 107 284 89 34 414 146 424 146 13 0 12 -4
-67 -325 -73 -299 -138 -521 -158 -541 -15 -14 -36 -97 -36 -137 0 -15 16 -32
50 -54 l49 -32 19 27 c10 15 29 44 42 65 l23 39 -27 21 -27 22 62 215 c34 118
91 334 128 479 l66 264 100 42 c273 113 420 226 496 380 70 142 47 282 -81
490 -67 109 -96 141 -188 205 -98 69 -124 74 -151 29z m208 -233 c62 -109 91
-197 91 -282 0 -141 -69 -268 -201 -369 -67 -52 -227 -140 -236 -131 -9 9 60
260 123 454 50 150 158 402 174 402 3 0 26 -33 49 -74z"/>
<path d="M2630 4826 c-8 -10 -14 -103 -21 -293 -9 -296 -18 -443 -26 -443 -2
0 -19 11 -36 24 -59 45 -148 86 -187 86 -54 0 -99 -35 -134 -103 -27 -52 -30
-70 -34 -170 -3 -79 2 -152 16 -247 11 -74 19 -136 17 -138 -1 -2 -32 16 -68
38 -51 32 -77 42 -114 43 -43 2 -48 0 -46 -19 2 -16 -6 -24 -36 -33 -59 -17
-126 -24 -166 -17 -30 6 -39 14 -52 44 -38 91 13 255 101 327 46 36 125 79
133 71 3 -3 -41 -53 -98 -111 -99 -102 -103 -107 -84 -121 69 -51 164 -6 313
150 59 61 82 93 80 108 -2 13 -31 37 -85 70 l-81 50 -54 -16 c-57 -16 -149
-71 -210 -125 -55 -48 -106 -132 -125 -204 -15 -55 -15 -72 -4 -121 16 -72 52
-115 138 -163 81 -45 160 -53 277 -29 43 9 98 16 121 16 24 0 47 5 50 10 10
17 25 11 25 -9 0 -22 28 -46 93 -81 l46 -24 26 24 c15 14 33 37 41 53 l15 27
43 -25 44 -26 63 24 c34 13 64 28 66 33 2 5 -25 26 -58 47 l-62 39 7 96 c6 91
12 110 91 307 89 221 117 312 134 440 12 83 14 266 5 303 -4 14 -31 37 -73 62
-76 45 -74 45 -91 26z m74 -363 c-11 -119 -86 -425 -99 -411 -10 10 90 468
101 468 2 0 2 -26 -2 -57z m-199 -413 c8 -16 27 -37 40 -46 14 -9 25 -25 25
-35 0 -40 -150 -299 -227 -392 -21 -26 -24 -27 -31 -10 -4 10 -7 81 -7 158 0
131 2 144 27 198 32 69 57 102 100 134 42 30 54 29 73 -7z"/>
<path d="M10846 4180 c-42 -44 -76 -86 -76 -95 0 -14 139 -115 159 -115 11 0
71 180 71 214 0 16 -12 32 -39 49 l-39 26 -76 -79z"/>
<path d="M9224 4156 c-97 -24 -182 -92 -167 -134 7 -19 178 -131 225 -148 23
-8 89 -23 147 -34 182 -33 171 -29 171 -62 0 -42 -45 -113 -115 -183 -145
-145 -511 -374 -662 -414 -23 -6 -49 -19 -58 -27 -14 -15 -14 -17 2 -29 14
-11 -7 -14 -127 -19 -80 -4 -174 -6 -210 -4 -88 4 -580 -11 -760 -23 -80 -5
-237 -14 -350 -19 -203 -10 -853 -67 -1525 -134 -192 -20 -388 -38 -435 -41
-327 -23 -2018 -207 -2195 -240 -11 -2 -211 -29 -445 -60 -395 -52 -889 -120
-935 -130 -11 -2 -227 -33 -480 -70 -252 -36 -475 -70 -495 -75 -19 -6 -147
-29 -285 -51 -137 -23 -257 -45 -265 -49 -8 -4 -35 -11 -60 -15 -25 -4 -53
-12 -63 -17 -16 -8 -13 -14 28 -45 l47 -36 147 17 c80 9 223 27 316 41 353 50
982 144 1040 155 33 6 209 35 390 64 182 30 337 56 345 60 8 3 175 30 370 61
195 31 420 67 500 79 80 13 336 49 570 80 234 31 463 63 510 71 275 47 2000
233 2320 250 58 3 179 12 270 20 733 63 1902 73 2990 24 476 -21 816 -39 850
-45 19 -3 94 -10 165 -15 290 -20 684 -66 1195 -138 119 -17 195 -32 203 -40
9 -9 -40 -20 -348 -81 -429 -85 -991 -204 -1025 -218 -26 -10 5 -13 296 -32
71 -4 197 -14 279 -20 141 -11 156 -11 260 10 61 12 218 41 350 65 287 53 492
97 552 120 l43 17 0 53 c0 54 0 54 -57 97 -109 83 -114 85 -263 114 -150 30
-272 44 -725 83 -71 6 -170 15 -220 21 -49 5 -151 12 -225 15 -74 3 -173 10
-220 15 -146 14 -1671 61 -2000 60 l-155 0 30 24 c17 14 122 80 235 147 419
250 552 350 566 425 8 45 -11 74 -92 131 -88 64 -146 88 -291 124 -73 17 -133
35 -133 39 0 16 69 68 119 90 28 13 51 27 51 31 0 16 -87 59 -116 58 -16 0
-52 -6 -80 -13z"/>
<path d="M8585 4069 c-27 -22 -97 -63 -155 -90 -168 -79 -175 -83 -178 -100
-2 -10 11 -26 34 -40 21 -13 42 -27 47 -30 5 -4 -13 -47 -42 -96 -28 -49 -65
-121 -81 -161 -30 -71 -48 -178 -33 -198 17 -22 149 -104 168 -104 33 0 106
52 163 116 70 78 141 220 149 297 7 70 -4 94 -58 127 -21 14 -39 27 -39 30 0
3 25 21 55 39 l55 33 35 -31 c41 -35 165 -120 213 -145 17 -9 32 -20 32 -25 0
-16 -102 -166 -153 -225 -55 -63 -169 -148 -222 -166 -55 -18 -51 -36 18 -80
34 -22 69 -40 78 -40 21 0 43 26 34 39 -3 6 30 37 73 68 44 32 116 84 160 116
152 111 252 221 252 278 0 30 -20 50 -115 113 -67 44 -73 46 -142 46 l-72 0
-5 33 c-3 17 -8 53 -11 78 -6 45 -8 48 -90 103 -47 31 -93 56 -102 55 -10 0
-40 -19 -68 -40z m-78 -369 c-9 -77 -54 -157 -131 -235 -43 -42 -71 -64 -74
-56 -14 41 53 234 108 311 18 25 28 30 62 30 l41 0 -6 -50z"/>
<path d="M10023 4024 c-48 -24 -76 -67 -172 -267 -116 -240 -143 -310 -139
-355 3 -34 9 -41 83 -89 44 -29 89 -53 100 -53 31 0 84 49 145 134 29 41 55
74 57 72 2 -1 -6 -49 -16 -107 -13 -71 -16 -108 -9 -116 6 -7 42 -33 80 -59
56 -36 75 -44 96 -39 47 12 120 76 219 193 53 62 97 111 99 110 1 -2 -4 -30
-12 -63 -24 -102 -22 -107 49 -154 71 -46 85 -48 143 -22 55 25 118 83 278
254 119 127 219 217 241 217 10 0 -2 -73 -36 -211 -16 -66 -29 -130 -29 -142
0 -16 21 -36 80 -74 44 -29 88 -53 99 -53 33 0 136 132 175 224 27 64 116 218
159 274 l41 54 25 -74 c69 -193 194 -359 356 -468 76 -51 286 -160 309 -160
12 0 32 29 24 35 -66 50 -200 127 -250 144 -56 19 -76 32 -122 81 -96 104
-133 212 -142 410 -3 69 -7 134 -9 146 -4 19 -171 144 -193 144 -14 0 -112
-96 -188 -183 l-60 -69 -73 55 c-41 30 -88 63 -106 73 -31 17 -35 17 -77 1
-76 -30 -132 -81 -203 -184 -80 -115 -213 -252 -304 -311 -35 -23 -67 -42 -71
-42 -10 0 14 110 43 196 14 39 46 112 72 163 26 51 44 96 39 100 -38 34 -149
101 -159 97 -8 -3 -17 -22 -20 -43 -24 -139 -118 -292 -260 -422 -62 -56 -156
-123 -163 -116 -8 8 30 170 77 322 48 156 49 158 30 179 -10 11 -19 29 -19 40
0 26 -37 60 -134 123 -85 55 -104 59 -153 35z m136 -202 c-20 -51 -123 -197
-193 -269 -38 -41 -71 -72 -73 -69 -8 8 50 133 93 198 47 70 159 182 174 173
5 -3 5 -17 -1 -33z"/>
<path d="M995 3346 c-122 -35 -271 -108 -260 -126 3 -6 0 -7 -8 -4 -17 6 -32
-12 -18 -20 12 -8 83 33 76 44 -3 4 1 7 8 6 6 0 48 13 92 31 105 41 218 57
314 43 67 -9 131 -32 131 -47 0 -21 -48 -75 -107 -120 -125 -94 -249 -143
-365 -143 -77 0 -75 -16 6 -63 72 -42 78 -42 206 4 161 59 360 200 360 256 0
35 -46 80 -118 115 -59 29 -76 33 -166 35 -65 2 -119 -2 -151 -11z"/>
<path d="M10635 2393 c-154 -38 -313 -88 -337 -105 -47 -32 -37 -56 49 -118
154 -111 151 -110 214 -110 49 0 60 3 69 21 9 16 8 24 -5 39 -16 18 -15 20 21
35 76 32 479 139 664 176 150 30 159 28 -295 68 -156 14 -310 12 -380 -6z"/>
</g>
</svg>
